# ProBuilder 5.0.7
# https://unity3d.com/unity/features/worldbuilding/probuilder
# 17-06-2023 14:07:02

mtllib ./tvtopobj.mtl
o tvtopobj

g New Game Object
v 0.5016174 0.6293077 -3.5415
v 0.5016174 -0.6293077 -4.023716
v 0.5016136 -0.6293077 -3.541912
v 0.5016136 -0.622335 -3.541908
v 0.5016174 -0.6293077 -3.059284
v 0.5016212 -0.622335 -3.061955
v 0.5016136 -0.6293077 3.542274
v 0.5016136 -0.6293077 4.023717
v 0.5016136 0.6272917 3.542274
v 0.5016136 -0.6223345 3.061956
v 0.5016136 -0.6293077 3.059285
v 0.5016098 -0.6223345 3.542274
v 0.5016098 -0.6164942 3.542274
v 0.5063362 -0.6223345 3.542274
v 0.5016098 0.6293077 3.509221
v 0.5063362 0.6293077 3.542274
v 0.5016098 0.6293077 3.542274
v 0.5063362 0.6293077 -3.541502
v 0.5016098 0.6234674 -3.541502
v 0.5016098 -0.6223345 -3.508448
v 0.5063362 -0.6223345 -3.541502
v 0.5015602 0.6293077 3.541501
v 0.501564 0.6293077 3.508906
v -0.500351 -0.6293077 -4.023716
v -0.500351 0.6293077 -3.5415
v -0.500351 -0.6293077 -3.541508
v -0.500351 -0.622335 -3.061955
v -0.500351 -0.6293077 -3.059284
v -0.500351 -0.622335 -3.541508
v -0.5063362 0.6293077 3.542274
v -0.500351 0.6293077 3.542274
v -0.5003548 0.6219134 3.542274
v -0.5063362 0.6293077 3.5415
v -0.500351 0.6293077 3.5415
v -0.5063362 -0.6223345 3.542274
v -0.500351 -0.6223345 3.542274
v -0.5003548 -0.6223345 3.500397
v -0.500351 0.1441278 3.542274
v -0.500351 0.1438265 3.542274
v -0.500351 0.6293077 3.541308
v -0.5063362 0.6293077 -3.541502
v -0.5003548 0.6293077 -3.499657
v -0.5063362 -0.6223345 -3.541502
v -0.500351 -0.622335 -3.541306
v -0.500351 -0.6149392 -3.541502
v -0.5063362 -0.6223345 3.061954
v -0.500351 -0.6223345 3.061954
v -0.5003548 -0.6223345 -2.966279
v -0.500351 -0.6223345 3.317061
v -0.500351 -0.6223345 3.316961
v -0.5063362 -0.5428476 3.09241
v 0.4960632 -0.622335 -3.061955
v -0.4966545 0.6293077 3.542274
v -0.4966583 0.6173449 3.542274
v -0.4966545 0.6293077 3.5415
v -0.4966545 -0.6223345 3.542274
v -0.4966621 -0.6223345 3.474581
v -0.4966545 0.6272879 3.542274
v -0.4966583 -0.6293077 4.023717
v -0.4966583 -0.6293077 3.542274
v -0.49506 0.6272893 3.542274
v 0.001674652 -0.6293077 3.542273
v -0.4376717 -0.6223345 3.061955
v 0.4377823 -0.6223345 -3.061956
v -0.4966621 -0.6223345 3.061954
v -0.4966583 -0.6293077 3.059284
v -0.491127 -0.6223345 3.061955
v 0.0008506775 -0.6293077 -3.541708

vt 0.4822168 1.258615
vt 0.9644327 0
vt 0.4826278 0
vt 0.4826255 0.006973047
vt 9.536743E-07 0
vt 0.002672489 0.006972884
vt 0.4814438 -1.788139E-07
vt 0.4814439 1.256599
vt 0.9617603 0.006973092
vt 0.4814438 0.006972962
vt -0.00584026 1.484528E-06
vt -5.960464E-08 0.004726648
vt 7.050721 1.484528E-06
vt 7.083774 0.004726648
vt 7.083774 1.047738E-07
vt -1.251642 1.484528E-06
vt -1.251642 0.004726648
vt 1.245802 1.484528E-06
vt 1.251642 0.004726648
vt 1.251642 1.047738E-07
vt -0.03305192 1.484528E-06
vt -7.083774 1.484528E-06
vt -7.083774 0.004726648
vt 5.960464E-08 7.083774
vt 1.251642 7.083774
vt -1.249623 1.482292E-06
vt 7.083001 -4.85351E-05
vt 5.364418E-07 1.34567
vt -0.4814439 -5.364418E-07
vt 7.050406 -4.360538E-05
vt -6.603456 1.390535E-06
vt -0.4795427 1.478141E-06
vt 6.788143E-05 -0.345047
vt -5.364418E-07 -0.3375796
vt -0.9644321 -5.364418E-07
vt -3.278255E-06 1.002783
vt 1.369925 -0.3450471
vt 1.369925 1.002783
vt -0.4822168 1.258615
vt -0.4822233 0
vt -0.002672551 0.006973047
vt -0.4822233 0.006972884
vt -1.251642 -1.007946
vt -1.251642 -1.001964
vt -1.244248 -1.001964
vt 7.083774 -1.007946
vt 7.083 -1.007946
vt 7.083 -1.001964
vt 7.083774 -1.001964
vt -7.083774 -1.007946
vt -7.083774 -1.001964
vt -7.041898 -1.00196
vt -5.960464E-08 -1.007946
vt -0.7664618 -1.001962
vt -5.960464E-08 -1.001964
vt 7.082808 -1.001963
vt -1.251642 7.083
vt -1.251642 7.083774
vt 0.04184572 -1.001964
vt 1.251642 -1.007946
vt 1.251608 -1.001963
vt 0.007395673 -1.001963
vt -6.603455 -1.007946
vt -6.603455 -1.001963
vt -0.5752219 -1.001965
vt -6.858562 -1.001962
vt -6.858461 -1.001964
vt -0.079487 6.633911
vt -5.960464E-08 6.603456
vt -0.007586471 0.007467658
vt -1.369925 3.411981E-07
vt -1.369925 0.007467484
vt 3.278255E-06 0.007467658
vt -1.251642 -0.9982672
vt -1.239679 -0.9982675
vt 7.083 -0.9982672
vt 7.083774 -0.9982675
vt -7.083774 -0.9982672
vt -7.016081 -0.9982694
vt -5.960464E-08 -0.9982675
vt -1.249622 -0.9982672
vt -0.4814427 1.256596
vt -1.362687 1.345668
vt -1.364876 -6.035366E-08
vt -1.364876 1.345668
vt -0.4814428 1.364876
vt -2.980232E-07 1.364876
vt -0.4814439 0.6835309
vt -6.603456 -0.9392818
vt -0.479543 -0.06382742
vt -0.4795435 -1.001963
vt -6.603455 -0.9982693
vt 1.364876 -0.3375795
vt 1.364876 -0.345047
vt 1.357314 -0.3375796
vt -0.9644321 1.364876
vt -0.4814433 0.006973217
vt -0.9617605 0.006972961
vt -0.4826272 -3.278255E-06
vt -0.4824257 0.6846642
vt -0.9644327 1.369925
vt -0.4822229 1.369925
vt -9.536743E-07 1.369925

vn 1 -3.03346E-06 7.917531E-06
vn 0.9999999 -0.0002765844 -1.190007E-05
vn 0.9999999 -0.000553173 -1.589613E-05
vn 0.9999999 0.0005470458 7.942038E-06
vn 0 0 1
vn 0 1 0
vn -0.0004044974 0.0001640575 -0.9999999
vn 0 -1 0
vn 0 0.0004723665 0.9999999
vn 0 0 0
vn 8.087339E-07 0.3577098 -0.9338328
vn -1 0 0
vn 0 0.3577421 0.9338204

usemtl Green2
f 3/3/1 2/2/1 1/1/1
f 9/8/1 8/5/1 7/7/1
f 12/5/5 14/12/5 13/11/5
f 17/15/6 16/14/6 15/13/6
f 1/20/7 18/19/7 19/18/7
f 4/5/8 21/12/8 20/21/8
f 9/26/5 17/16/9 17/16/9
f 9/26/5 9/26/5 17/16/9
f 9/26/10 9/26/10 9/26/10
f 17/15/6 22/27/6 22/27/6
f 17/15/10 17/15/10 22/27/10
f 17/15/10 17/15/10 17/15/10
f 22/27/6 15/13/6 15/13/6
f 22/27/6 22/27/6 15/13/6
f 8/5/10 8/5/10 8/5/10
f 8/5/10 8/5/10 9/28/10
f 9/28/10 8/5/10 9/28/10
f 8/5/10 7/29/10 8/5/10
f 8/5/10 8/5/10 8/5/10
f 15/13/6 15/13/6 1/5/6
f 15/13/6 15/13/6 23/30/6
f 10/31/8 6/32/8 10/31/8
f 11/33/10 11/33/10 11/33/10
f 10/34/11 11/33/11 11/33/11
f 10/34/10 10/34/10 11/33/10
f 11/35/8 11/35/8 7/29/8
f 11/35/10 11/35/10 11/35/10
f 11/35/10 11/35/10 11/35/10
f 24/35/12 26/40/12 25/39/12
f 34/48/6 33/47/6 30/46/6
f 34/48/6 34/48/6 30/46/6
f 31/49/6 34/48/6 30/46/6
f 38/54/5 32/45/5 35/53/5
f 36/55/5 39/54/5 35/53/5
f 40/56/10 40/56/10 33/47/10
f 42/59/6 25/55/6 41/53/6
f 25/61/10 25/61/10 41/60/10
f 44/55/8 44/55/8 43/53/8
f 45/62/7 29/55/7 43/53/7
f 44/55/8 48/65/8 43/53/8
f 49/66/8 37/52/8 46/63/8
f 47/64/8 50/67/8 46/63/8
f 46/69/12 51/68/12 43/5/12
f 46/69/12 35/24/12 51/68/12
f 52/70/13 5/5/13 6/73/13
f 34/48/6 55/76/6 34/48/6
f 53/77/6 55/76/6 34/48/6
f 31/49/6 53/77/6 34/48/6
f 38/54/5 54/75/5 32/45/5
f 9/26/5 9/26/5 53/74/5
f 17/15/6 17/15/6 55/76/6
f 40/56/6 22/27/6 40/56/6
f 49/66/8 57/79/8 37/52/8
f 60/29/12 59/5/12 58/82/12
f 8/5/13 8/5/13 61/83/13
f 9/28/13 61/83/13 8/5/13
f 62/88/8 59/87/8 60/86/8
f 8/5/8 59/87/8 8/5/8
f 15/13/6 23/30/6 42/59/6
f 27/91/8 64/90/8 48/65/8
f 67/95/11 66/94/11 65/93/11
f 11/33/11 11/33/11 67/95/11
f 11/35/8 60/86/8 11/35/8
f 68/100/8 2/35/8 3/99/8
f 68/100/8 3/99/8 5/5/8
f 7/29/10 7/29/10 8/5/10
f 7/29/10 11/35/10 7/29/10
f 7/29/8 62/88/8 11/35/8
f 11/35/8 62/88/8 11/35/8
f 5/5/2 3/3/1 4/4/2
f 4/4/2 6/6/3 5/5/2
f 7/7/2 11/2/1 10/9/2
f 10/9/2 12/10/4 7/7/2
f 14/12/5 16/17/5 17/16/5
f 17/16/5 13/11/5 14/12/5
f 16/14/6 18/12/6 1/5/6
f 1/5/6 15/13/6 16/14/6
f 18/19/7 21/12/7 4/5/7
f 4/5/7 19/18/7 18/19/7
f 21/12/8 14/23/8 12/22/8
f 12/22/8 20/21/8 21/12/8
f 18/20/1 16/25/1 14/24/1
f 14/24/1 21/5/1 18/20/1
f 1/36/11 2/33/11 24/37/11
f 24/37/11 25/38/11 1/36/11
f 26/40/12 28/5/12 27/41/12
f 27/41/12 29/42/12 26/40/12
f 32/45/5 31/44/5 30/43/5
f 30/43/5 35/53/5 32/45/5
f 37/52/8 36/51/8 35/50/8
f 35/50/8 46/63/8 37/52/8
f 35/24/12 30/58/12 33/57/12
f 33/57/12 51/68/12 35/24/12
f 42/59/6 41/53/6 33/47/6
f 33/47/6 40/56/6 42/59/6
f 45/62/7 43/53/7 41/60/7
f 41/60/7 25/61/7 45/62/7
f 47/64/8 46/63/8 43/53/8
f 43/53/8 48/65/8 47/64/8
f 51/68/12 33/57/12 41/16/12
f 41/16/12 43/5/12 51/68/12
f 28/71/13 5/5/13 52/70/13
f 52/70/13 27/72/13 28/71/13
f 54/75/5 53/74/5 31/44/5
f 31/44/5 32/45/5 54/75/5
f 57/79/8 56/78/8 36/51/8
f 36/51/8 37/52/8 57/79/8
f 56/80/5 54/75/5 39/54/5
f 39/54/5 36/55/5 56/80/5
f 9/26/5 17/16/9 53/74/5
f 53/74/5 58/81/5 9/26/5
f 17/15/6 22/27/6 55/76/6
f 55/76/6 53/77/6 17/15/6
f 40/56/6 22/27/6 15/13/6
f 15/13/6 42/59/6 40/56/6
f 61/83/13 58/85/13 59/84/13
f 59/84/13 8/5/13 61/83/13
f 59/87/8 62/88/8 7/29/8
f 7/29/8 8/5/8 59/87/8
f 23/30/6 1/5/6 25/55/6
f 25/55/6 42/59/6 23/30/6
f 64/90/8 63/89/8 47/64/8
f 47/64/8 48/65/8 64/90/8
f 63/89/8 64/90/8 6/32/8
f 6/32/8 10/31/8 63/89/8
f 65/92/8 57/79/8 50/67/8
f 50/67/8 47/64/8 65/92/8
f 11/33/11 66/94/11 67/95/11
f 67/95/11 10/34/11 11/33/11
f 60/86/8 66/96/8 11/35/8
f 11/35/8 62/88/8 60/86/8
f 66/35/12 60/29/12 56/97/12
f 56/97/12 65/98/12 66/35/12
f 26/102/8 24/101/8 2/35/8
f 2/35/8 68/100/8 26/102/8
f 26/102/8 68/100/8 5/5/8
f 5/5/8 28/103/8 26/102/8

